<svg width="1024" height="1024" viewBox="0 0 1024 1024" fill="none" xmlns="http://www.w3.org/2000/svg">
<rect width="1024" height="1024" fill="#00A6FC"/>
<path d="M869.79 608.36V416.64C912.403 408.46 944.454 373.183 944.454 330.92C944.454 282.691 902.569 243.495 851.033 243.495C823.17 243.495 798.404 255.254 781.286 273.318L603.549 177.373C606.827 168.511 608.83 159.309 608.83 149.424C608.83 101.196 566.945 62 515.409 62C463.873 62 421.988 101.196 421.988 149.424C421.988 159.309 424.173 168.511 427.269 177.373L249.168 273.489C232.05 255.254 207.283 243.495 179.421 243.495C127.885 243.495 86 282.691 86 330.92C86 373.354 118.415 408.63 161.21 416.64V608.36C118.415 616.37 86 651.646 86 694.08C86 742.309 127.885 781.505 179.421 781.505C207.283 781.505 232.05 769.746 249.168 751.511L427.269 847.627C423.991 856.489 421.988 865.862 421.988 875.576C421.988 923.804 463.873 963 515.409 963C566.945 963 608.83 923.804 608.83 875.576C608.83 865.691 606.645 856.489 603.549 847.627L781.65 751.511C798.768 769.746 823.534 781.505 851.579 781.505C903.115 781.505 945 742.309 945 694.08C945 651.646 912.585 616.199 869.608 608.36H869.79ZM781.832 636.65L720.644 603.588C723.74 597.624 726.471 591.318 729.021 585.013C729.385 584.331 729.567 583.65 729.931 582.797C738.308 560.643 743.043 537.125 743.043 512.415C743.043 487.704 738.308 464.016 729.931 441.862C729.749 441.18 729.567 440.669 729.203 440.158C726.653 433.852 723.922 427.547 720.826 421.582L781.65 388.691C795.126 402.836 812.972 413.061 833.732 416.81V608.531C813.154 612.28 795.49 622.675 782.196 636.82L781.832 636.65ZM197.814 608.36V416.64C218.392 412.891 236.238 402.495 249.532 388.35L310.72 421.412C307.625 427.547 304.893 433.682 302.343 439.987C302.161 440.498 301.979 441.01 301.615 441.691C293.238 463.846 288.503 487.534 288.503 512.415C288.503 537.296 293.238 560.814 301.615 582.968C301.797 583.65 301.979 584.331 302.343 585.013C304.893 591.318 307.625 597.453 310.72 603.588L249.532 636.65C236.238 622.505 218.392 612.109 197.814 608.36ZM325.107 512.585C325.107 495.884 327.838 479.865 332.391 464.527H391.758C388.48 477.82 386.295 491.624 385.749 506.28C385.02 524.685 387.023 542.92 391.394 560.814H332.391C327.838 545.476 325.107 529.286 325.107 512.585ZM422.17 507.643C422.716 492.646 425.63 478.161 429.636 464.527H497.562V560.814H429.09C423.991 543.261 421.442 525.537 421.988 507.643H422.17ZM533.984 356.482C551.284 373.865 572.773 399.428 588.434 430.444H533.984V356.482ZM497.562 430.444H443.294C458.956 399.428 480.262 373.865 497.562 356.482V430.444ZM497.562 594.897V667.836C473.524 643.807 455.496 619.437 442.748 594.897H497.562ZM533.984 594.897H588.616C576.051 619.608 558.022 643.978 533.984 667.836V594.897ZM533.984 560.814V464.527H602.092C606.098 478.161 609.012 492.306 609.558 507.473C610.287 525.367 607.737 543.09 602.456 560.814H533.984ZM639.788 464.527H699.155C703.708 479.865 706.439 495.884 706.439 512.585C706.439 529.286 703.708 545.476 699.155 560.814H640.152C644.523 542.749 646.526 524.685 645.798 506.28C645.251 491.794 643.066 477.82 639.788 464.527ZM684.769 430.444H628.133C612.472 393.293 588.98 362.958 568.402 341.315C618.846 354.949 660.913 387.669 684.769 430.444ZM403.231 430.444H346.595C370.452 387.498 412.336 354.949 462.962 341.315C442.384 363.129 418.892 393.463 403.231 430.444ZM346.595 594.897H402.867C415.978 625.402 436.739 655.396 464.601 684.367C413.247 671.074 370.634 638.183 346.413 594.897H346.595ZM628.315 594.897H684.587C683.312 597.283 681.855 599.498 680.58 601.714C655.814 641.592 615.204 671.585 566.581 684.196C594.626 655.055 615.204 625.232 628.315 594.727V594.897ZM851.033 277.749C882.537 277.749 908.032 301.608 908.032 331.09C908.032 360.572 882.719 384.09 851.579 384.431C851.579 384.431 851.397 384.431 851.215 384.431C819.71 384.431 794.215 360.572 794.215 331.09C794.215 301.608 819.71 277.749 851.215 277.749H851.033ZM763.075 302.971C759.797 311.833 757.612 321.206 757.612 331.09C757.612 340.974 759.797 350.347 763.075 359.209L702.433 392.1C664.737 340.974 603.731 306.209 533.802 300.926V235.145C554.198 231.396 572.044 221 585.338 206.855L762.893 302.801L763.075 302.971ZM515.591 96.254C547.096 96.254 572.591 120.113 572.591 149.595C572.591 179.077 547.096 202.936 515.591 202.936C484.086 202.936 458.591 179.077 458.591 149.595C458.591 120.113 484.086 96.254 515.591 96.254ZM445.844 207.026C459.138 221.17 476.984 231.396 497.562 235.315V301.096C427.633 306.379 366.627 341.145 328.931 392.27L267.743 359.209C271.021 350.347 273.024 341.145 273.024 331.26C273.024 321.376 270.839 312.174 267.743 303.312L445.844 207.196V207.026ZM122.604 331.09C122.604 301.608 148.099 277.749 179.603 277.749C211.108 277.749 236.603 301.608 236.603 331.09C236.603 360.572 211.108 384.26 179.785 384.431C179.785 384.431 179.785 384.431 179.603 384.431C179.603 384.431 179.603 384.431 179.421 384.431C148.099 384.431 122.604 360.402 122.604 331.09ZM179.603 747.592C148.099 747.592 122.604 723.733 122.604 694.251C122.604 664.768 148.099 641.08 179.421 640.91C179.421 640.91 179.421 640.91 179.603 640.91C179.603 640.91 179.603 640.91 179.785 640.91C211.108 640.91 236.603 664.939 236.603 694.251C236.603 723.563 211.108 747.592 179.603 747.592ZM267.743 722.199C271.021 713.338 273.024 704.135 273.024 694.251C273.024 684.367 270.839 675.164 267.743 666.302L328.931 633.241C366.627 684.367 427.633 719.132 497.562 724.244V790.026C476.984 793.775 459.138 804.17 445.844 818.315L267.743 722.199ZM515.773 929.087C484.269 929.087 458.774 905.228 458.774 875.746C458.774 846.264 484.269 822.405 515.773 822.405C547.278 822.405 572.773 846.264 572.773 875.746C572.773 905.228 547.278 929.087 515.773 929.087ZM585.52 818.315C572.226 804.17 554.38 793.945 533.984 790.026V724.244C603.731 718.961 664.737 684.196 702.433 633.241L763.621 666.302C760.343 675.164 758.34 684.367 758.34 694.251C758.34 704.135 760.525 713.338 763.621 722.199L585.52 818.315ZM851.761 747.592C820.256 747.592 794.761 723.733 794.761 694.251C794.761 664.768 820.256 641.08 851.579 640.91C851.579 640.91 851.579 640.91 851.761 640.91C883.083 640.91 908.579 664.939 908.579 694.251C908.579 723.563 883.083 747.592 851.579 747.592H851.761Z" fill="white"/>
</svg>
